<svg width="108" height="27" viewBox="0 0 108 27" fill="none" xmlns="http://www.w3.org/2000/svg">
<g clip-path="url(#clip0_1918_22592)">
<path fill-rule="evenodd" clip-rule="evenodd" d="M15.4099 12.0833C15.1442 11.9694 14.8405 11.9062 14.5242 11.9062H6.85723H6.76867C6.47768 11.8935 6.19934 11.8176 5.93365 11.6911C5.66796 11.5646 5.44023 11.3874 5.25045 11.185C5.06068 10.9826 4.90885 10.7422 4.79499 10.4638C4.68112 10.1855 4.63051 9.89451 4.63051 9.59087C4.63051 9.27457 4.68112 8.97093 4.79499 8.69259C4.8962 8.41425 5.04802 8.17387 5.25045 7.97144C5.44023 7.75636 5.68061 7.59188 5.9463 7.47802C6.22464 7.3515 6.52829 7.28824 6.85723 7.27559H14.5116C14.8279 7.27559 15.1189 7.21233 15.3972 7.08581C15.6629 6.95929 15.9033 6.78217 16.1057 6.56708C16.3081 6.352 16.4726 6.11162 16.5865 5.82063C16.7003 5.52963 16.7636 5.22599 16.7636 4.9097C16.7636 4.60605 16.7003 4.31506 16.5865 4.03672C16.4726 3.75838 16.3081 3.518 16.1057 3.31557C15.9033 3.10049 15.6756 2.93601 15.3972 2.82215C15.1315 2.70828 14.8279 2.64502 14.5116 2.64502H6.85723C6.8068 2.64502 6.76046 2.64912 6.72057 2.65266C6.69041 2.65533 6.66394 2.65767 6.64215 2.65767C5.73122 2.69563 4.8709 2.89806 4.06118 3.27761C3.25146 3.65717 2.55561 4.15059 1.96098 4.77053C1.35369 5.37781 0.885574 6.09897 0.531323 6.92134C0.177072 7.7437 -5.34058e-05 8.62933 -5.34058e-05 9.56557C-5.34058e-05 10.4512 0.16442 11.2989 0.480716 12.0959C0.797011 12.893 1.23983 13.6015 1.79651 14.2467C1.23983 14.8667 0.797011 15.5752 0.480716 16.3722C0.16442 17.1693 -5.34058e-05 18.0296 -5.34058e-05 18.9279C-5.34058e-05 19.8641 0.177072 20.7498 0.543975 21.5974C0.898226 22.4198 1.379 23.1536 1.99893 23.7736C2.61887 24.3935 3.34003 24.8869 4.14974 25.2412C4.97211 25.6081 5.85774 25.7852 6.79397 25.7852H14.5116C14.8279 25.7852 15.1189 25.7219 15.3972 25.5954C15.6629 25.4689 15.9033 25.2918 16.1057 25.0767C16.3081 24.8616 16.4726 24.6212 16.5865 24.3302C16.7003 24.0393 16.7636 23.7356 16.7636 23.4193C16.7636 23.1157 16.7003 22.8247 16.5865 22.5463C16.4726 22.268 16.3081 22.0276 16.1057 21.8252C15.9033 21.6101 15.6756 21.4456 15.3972 21.3318C15.1315 21.2179 14.8279 21.1546 14.5116 21.1546H6.85723H6.76867C6.45238 21.1546 6.17404 21.0914 5.90835 20.9649C5.65531 20.8383 5.42758 20.6739 5.2378 20.4588C5.04802 20.2564 4.8962 20.0033 4.79499 19.725C4.68112 19.4466 4.63051 19.143 4.63051 18.8394C4.63051 18.1941 4.84559 17.6501 5.25045 17.2199C5.65531 16.7898 6.18669 16.562 6.85723 16.5367H14.5242C14.8405 16.5367 15.1315 16.4735 15.4099 16.3469C15.6756 16.2204 15.9159 16.0433 16.1184 15.8282C16.3208 15.6131 16.4853 15.3728 16.5991 15.0818C16.713 14.7908 16.7763 14.4871 16.7763 14.1708C16.7763 13.8672 16.713 13.5762 16.5991 13.2979C16.4853 13.0195 16.3208 12.7791 16.1184 12.5767C15.9159 12.3616 15.6882 12.1971 15.4099 12.0833ZM29.2135 23.4699V7.33885H33.9832C34.3122 7.33885 34.6158 7.28824 34.8942 7.16172C35.1725 7.04785 35.4255 6.88338 35.6406 6.6683C35.8557 6.45322 36.0202 6.20018 36.1467 5.92184C36.2605 5.6435 36.3238 5.33986 36.3238 5.01091C36.3238 4.68196 36.2732 4.37832 36.1467 4.08733C36.0202 3.79634 35.8557 3.55595 35.6406 3.34087C35.4255 3.12579 35.1725 2.96132 34.8942 2.8348C34.6158 2.70828 34.3122 2.64502 33.9832 2.64502H19.7626C19.4336 2.64502 19.13 2.69563 18.8516 2.82215C18.5607 2.93601 18.3203 3.10049 18.1052 3.31557C17.9028 3.53065 17.7256 3.78368 17.6118 4.06202C17.4979 4.34036 17.4346 4.64401 17.4346 4.97295C17.4346 5.3019 17.4852 5.60555 17.6118 5.89654C17.7256 6.18753 17.8901 6.42791 18.1052 6.643C18.3203 6.85808 18.5733 7.02255 18.8516 7.14907C19.13 7.27559 19.4336 7.33885 19.7626 7.33885H24.5197V23.4699C24.5197 23.7989 24.5703 24.1025 24.6968 24.3808C24.8107 24.6718 24.9751 24.9122 25.1902 25.1147C25.4053 25.3297 25.6583 25.4942 25.9367 25.6081C26.215 25.7219 26.5186 25.7852 26.8476 25.7852C27.1765 25.7852 27.4802 25.7346 27.7712 25.6081C28.0622 25.4816 28.3026 25.3171 28.5176 25.1147C28.7327 24.9122 28.8972 24.6592 29.0237 24.3808C29.1502 24.1025 29.2135 23.7989 29.2135 23.4699Z" fill="#B60005"/>
<path fill-rule="evenodd" clip-rule="evenodd" d="M93.0155 20.788C93.3697 20.788 93.6987 20.8639 94.0023 21.0031C94.306 21.1423 94.559 21.3321 94.7867 21.5598C95.0018 21.7875 95.179 22.0532 95.2928 22.3695C95.4193 22.6731 95.4699 23.0021 95.4699 23.3437C95.4699 23.6853 95.4067 24.0142 95.2928 24.3179C95.1663 24.6215 95.0018 24.8746 94.7867 25.0896C94.5717 25.3047 94.306 25.4819 94.0023 25.5957C93.6987 25.7222 93.3697 25.7728 93.0155 25.7728H92.9143C92.0413 25.7602 91.2189 25.6084 90.4472 25.3047C89.6754 25.0011 88.9922 24.5836 88.4229 24.0522C87.8409 23.5208 87.3981 22.8882 87.0565 22.1418C86.7275 21.3953 86.5631 20.5856 86.5631 19.7V3.51829C86.5631 3.17669 86.6263 2.84774 86.7528 2.5441C86.8794 2.24045 87.0565 1.97477 87.2716 1.74703C87.4866 1.5193 87.7397 1.34217 88.0307 1.21566C88.3217 1.08914 88.6253 1.02588 88.9669 1.02588C89.3085 1.02588 89.6375 1.08914 89.9537 1.21566C90.27 1.34217 90.5484 1.5193 90.7761 1.74703C91.0165 1.97477 91.2063 2.24045 91.3454 2.5441C91.4846 2.84774 91.5605 3.17669 91.5605 3.51829V19.7126C91.5605 20.0922 91.6997 20.3705 91.978 20.535C92.269 20.6995 92.6106 20.788 93.0155 20.788ZM50.2281 23.3429C50.2281 23.6845 50.1649 24.0135 50.0384 24.3045C49.9118 24.5955 49.7347 24.8612 49.507 25.0762C49.2793 25.2913 49.0262 25.4684 48.7352 25.595C48.4442 25.7215 48.1279 25.7847 47.799 25.7847C47.4574 25.7847 47.1284 25.7215 46.8248 25.595C46.5212 25.4684 46.2428 25.2913 46.0151 25.0762C45.7874 24.8612 45.5976 24.6081 45.4584 24.3045C45.3192 24.0135 45.2433 23.6845 45.2433 23.3429V15.0813C45.218 14.3601 44.9776 13.7908 44.5095 13.348C44.0541 12.9052 43.4721 12.6901 42.7636 12.6901C42.4346 12.6901 42.1183 12.7534 41.8147 12.8672C41.511 12.9811 41.2453 13.1456 41.0176 13.348C40.7899 13.5504 40.6001 13.7908 40.4736 14.0818C40.3344 14.3601 40.2712 14.6764 40.2712 15.0054V15.1066V23.3682C40.2712 23.7098 40.2079 24.0388 40.0814 24.3298C39.9549 24.6208 39.7777 24.8865 39.55 25.1015C39.3223 25.3166 39.0692 25.4937 38.7656 25.6203C38.4746 25.7468 38.1583 25.81 37.8294 25.81C37.4878 25.81 37.1588 25.7468 36.8552 25.6203C36.5515 25.4937 36.2732 25.3166 36.0455 25.1015C35.8177 24.8865 35.6279 24.6334 35.4888 24.3298C35.3496 24.0388 35.2737 23.7098 35.2737 23.3682V15.056C35.2737 14.0438 35.4635 13.095 35.8557 12.2093C36.2479 11.3237 36.7793 10.5393 37.4498 9.8814C38.1204 9.21085 38.9048 8.69213 39.803 8.31257C40.7013 7.93302 41.6502 7.73059 42.6624 7.73059C43.6365 7.73059 44.5601 7.90772 45.4205 8.24932C46.2808 8.59091 47.0525 9.07168 47.7104 9.66632C48.4063 9.05903 49.178 8.59091 50.0384 8.24932C50.8987 7.90772 51.8096 7.73059 52.7712 7.73059C53.7833 7.73059 54.7322 7.92037 55.6178 8.29992C56.5034 8.67948 57.2879 9.18555 57.9458 9.83079C58.6036 10.476 59.135 11.2351 59.5399 12.1081C59.9447 12.9811 60.1598 13.9047 60.1978 14.8915C60.2104 14.9421 60.2104 15.018 60.2104 15.1192V15.1193V23.3809C60.2104 23.7225 60.1472 24.0514 60.0207 24.3424C59.8941 24.6334 59.717 24.8991 59.4893 25.1142C59.2615 25.3293 59.0085 25.5064 58.7175 25.6329C58.4265 25.7594 58.1102 25.8227 57.7813 25.8227C57.4397 25.8227 57.1107 25.7594 56.8071 25.6329C56.5034 25.5064 56.2251 25.3293 55.9974 25.1142C55.7696 24.8991 55.5799 24.6461 55.4407 24.3424C55.3015 24.0514 55.2256 23.7225 55.2256 23.3809V15.1193C55.213 14.765 55.137 14.4361 55.0105 14.1451C54.884 13.8541 54.7069 13.601 54.4792 13.386C54.2514 13.1709 53.9984 13.0064 53.6947 12.8925C53.3911 12.7787 53.0748 12.7154 52.7206 12.7154C52.3916 12.7154 52.0753 12.7787 51.7843 12.8925C51.4933 13.0191 51.2276 13.1835 50.9999 13.386C50.7722 13.5884 50.595 13.8288 50.4559 14.1198C50.3167 14.3981 50.2408 14.7017 50.2281 15.018V15.1193V23.3429ZM103.809 21.0031C103.505 20.8639 103.176 20.788 102.822 20.788C102.417 20.788 102.075 20.6995 101.797 20.535C101.519 20.3705 101.38 20.0922 101.38 19.7126V3.51829C101.38 3.17669 101.304 2.84774 101.164 2.5441C101.025 2.24045 100.836 1.97477 100.595 1.74703C100.367 1.5193 100.089 1.34217 99.7728 1.21566C99.4565 1.08914 99.1275 1.02588 98.7859 1.02588C98.4443 1.02588 98.1407 1.08914 97.8497 1.21566C97.5587 1.34217 97.3057 1.5193 97.0906 1.74703C96.8755 1.97477 96.6984 2.24045 96.5719 2.5441C96.4454 2.84774 96.3821 3.17669 96.3821 3.51829V19.7C96.3821 20.5856 96.5466 21.3953 96.8755 22.1418C97.2171 22.8882 97.6599 23.5208 98.2419 24.0522C98.8112 24.5836 99.4944 25.0011 100.266 25.3047C101.038 25.6084 101.86 25.7602 102.733 25.7728H102.822C103.176 25.7728 103.505 25.7222 103.809 25.5957C104.112 25.4819 104.378 25.3047 104.593 25.0896C104.808 24.8746 104.973 24.6215 105.099 24.3179C105.213 24.0142 105.276 23.6853 105.276 23.3437C105.276 23.0021 105.226 22.6731 105.099 22.3695C104.985 22.0532 104.808 21.7875 104.593 21.5598C104.365 21.3321 104.112 21.1423 103.809 21.0031Z" fill="#F08719"/>
<path fill-rule="evenodd" clip-rule="evenodd" d="M73.6595 1L73.8113 1.06326C74.7349 1.45547 75.5573 2.37905 75.9874 3.53036C76.4429 4.70698 76.4555 5.92156 76.0127 6.85779L75.9495 7.00961L75.7976 6.94636C74.8867 6.60476 74.0643 5.66852 73.5962 4.4413C73.1408 3.22672 73.1281 1.99949 73.5836 1.13917L73.6595 1ZM79.9463 5.44055C80.7181 4.20067 81.0091 2.84693 80.7054 1.80948L80.6548 1.65765L80.4904 1.68296C79.3896 1.89804 78.2763 2.74571 77.5172 3.92233C76.7581 5.1116 76.4797 6.44004 76.7581 7.56605L76.796 7.73053L76.9605 7.70522C78.0486 7.5281 79.1619 6.68043 79.9463 5.44055ZM84.1097 7.57855C83.3632 6.908 82.174 6.5664 80.9214 6.65496C79.6689 6.74352 78.5682 7.26225 77.9103 8.05931L77.8091 8.18583L77.923 8.2997C78.5429 8.89433 79.5424 9.23593 80.6684 9.23593C80.8202 9.23593 80.972 9.23593 81.1365 9.22328C82.4397 9.12207 83.553 8.59069 84.135 7.81893L84.2362 7.69241L84.1097 7.57855Z" fill="#499B37"/>
<path d="M83.0721 12.6148C81.6804 10.1983 79.4916 9.03431 76.7082 9.09757C76.1136 9.11022 75.8226 8.97105 75.5569 8.43968C74.9623 7.21245 74.0008 6.27622 72.4319 5.37794C70.1673 4.27723 67.6116 4.31518 65.1445 6.02318C62.8545 7.60466 62.3105 9.94524 62.399 12.5262C62.5635 17.0809 64.2335 21.2307 66.0428 25.3172C66.3084 25.9245 66.8778 26.0637 67.4724 25.9624C71.559 25.2792 75.6328 24.4948 79.3778 22.6224C80.7948 21.9139 82.2118 21.1421 83.0468 19.7378C84.4259 17.3972 84.4259 14.968 83.0721 12.6148Z" fill="#B60005"/>
<path d="M70.2937 21.0787C70.0154 21.6101 69.7244 22.1288 69.4208 22.6475C69.193 23.0524 68.6869 23.1789 68.2821 22.9512C67.8899 22.7235 67.7381 22.2427 67.9531 21.8378C68.0923 21.5721 68.2441 21.3191 68.3833 21.0534C68.5225 20.7877 68.6743 20.5347 68.8135 20.269C69.0412 19.8768 69.5346 19.7376 69.9268 19.9527C70.357 20.1804 70.5088 20.6739 70.2937 21.0787ZM69.8003 15.0438C69.6611 15.2968 69.522 15.5499 69.3828 15.8029C69.2436 16.0559 69.1045 16.309 68.9653 16.562C68.7249 16.9669 68.2315 17.0934 67.8266 16.8657C67.4344 16.6379 67.2826 16.1572 67.4977 15.7523C67.776 15.2462 68.0544 14.7402 68.3453 14.2341C68.5731 13.8292 69.0792 13.7027 69.484 13.9304C69.8762 14.1582 70.0154 14.6389 69.8003 15.0438ZM69.3195 8.99623C69.1804 9.24926 69.0412 9.5023 68.902 9.75534C68.7629 10.0084 68.6237 10.2614 68.4845 10.5144C68.2441 10.9193 67.7507 11.0458 67.3459 10.8054C66.9536 10.5777 66.8018 10.0969 67.0169 9.69208C67.2952 9.18601 67.5736 8.67993 67.8646 8.17386C68.0923 7.78165 68.5857 7.64248 68.9779 7.85756C69.3828 8.09795 69.5346 8.59137 69.3195 8.99623ZM75.6834 18.308C75.5442 18.561 75.4051 18.814 75.2659 19.0671C75.1267 19.3201 74.9876 19.5732 74.8484 19.8262C74.608 20.231 74.1146 20.3576 73.7097 20.1172C73.3175 19.8894 73.1657 19.4087 73.3808 19.0038C73.6591 18.4977 73.9375 17.9917 74.2284 17.4856C74.4562 17.0934 74.9496 16.9542 75.3418 17.1693C75.7467 17.4097 75.8985 17.9031 75.6834 18.308ZM75.2026 12.2477C74.9243 12.7665 74.646 13.2852 74.3423 13.7913C74.1146 14.1835 73.6212 14.31 73.229 14.0949C72.8241 13.8672 72.6723 13.3864 72.8874 12.9689C73.0265 12.7159 73.1657 12.4628 73.3049 12.2098C73.444 11.9568 73.5832 11.7037 73.7224 11.4507C73.9501 11.0585 74.4435 10.932 74.8357 11.147C75.2532 11.3748 75.4177 11.8555 75.2026 12.2477ZM81.0731 15.5372C80.7947 16.0433 80.5164 16.5494 80.2254 17.0554C79.9977 17.4603 79.4916 17.5868 79.0867 17.3591C78.6819 17.1313 78.5427 16.6506 78.7704 16.2204C78.897 15.98 79.0361 15.727 79.1753 15.4866C79.3145 15.2336 79.4536 14.9805 79.5928 14.7275C79.8332 14.3226 80.3266 14.1961 80.7315 14.4239C81.1363 14.6516 81.2882 15.1324 81.0731 15.5372Z" fill="white"/>
</g>
<defs>
<clipPath id="clip0_1918_22592">
<rect width="105.288" height="25" fill="white" transform="translate(-5.34058e-05 1)"/>
</clipPath>
</defs>
</svg>
