<svg width="24" height="24" viewBox="0 0 24 24" fill="none" xmlns="http://www.w3.org/2000/svg">
<path fill-rule="evenodd" clip-rule="evenodd" d="M5.65748 4.22018C5.25586 3.90214 4.67074 3.92864 4.29969 4.29969C3.9001 4.69928 3.9001 5.34714 4.29969 5.74673L10.553 12L4.29969 18.2533C3.9001 18.6529 3.9001 19.3007 4.29969 19.7003C4.67074 20.0714 5.25586 20.0979 5.65748 19.7798L5.74673 19.7003L12 13.447L18.2533 19.7003L18.3425 19.7798C18.7441 20.0979 19.3293 20.0714 19.7003 19.7003C20.0999 19.3007 20.0999 18.6529 19.7003 18.2533L13.447 12L19.7003 5.74673C20.0999 5.34714 20.0999 4.69928 19.7003 4.29969C19.3293 3.92864 18.7441 3.90214 18.3425 4.22018L18.2533 4.29969L12 10.553L5.74673 4.29969L5.65748 4.22018Z" fill="#999999"/>
</svg>
